# xmcd
#
# Track frame offsets:
# 150
# 15317
# 36197
# 48912
# 65022
# 87127
# 104995
# 121397
# 136972
# 156880
# 175177
# 189217
# 203935
# 225405
# 241370
# 257675
#
# Disc length: 3646 seconds
#
#
# Revision: 3
# Processed by: cddbd v1.5.1PL2 Copyright (c) Steve Scherf et al.
# Submitted via: FreeRIP 2.944 
#
DISCID=d30e3c10
DTITLE=Diversos - 4x4
DYEAR=2001
DGENRE=Sertaneja
TTITLE0=Chitãozinho and Xororó - Alô
TTITLE1=João Paulo and Daniel - Estou Apaixonado
TTITLE2=Rionegro and Solimões - Bate O Pé
TTITLE3=Rick and Renner - Muleca
TTITLE4=Chitãozinho and Xororó - Evidências
TTITLE5=João Paulo and Daniel - Dia De Visita
TTITLE6=Rionegro and Solimões - A Gente Se Entrega
TTITLE7=Rick and Renner - Enrosca, Enrosca
TTITLE8=Chitãozinho and Xororó - Página Virada
TTITLE9=João Paulo and Daniel - Minha Estrela Perdida
TTITLE10=Rionegro and Solimões - De São Paulo A Belém
TTITLE11=Rick and Renner - Tira A Roupa
TTITLE12=Chitãozinho and Xororó - Um Homem Quando Ama
TTITLE13=João Paulo and Daniel - Rosto Molhado
TTITLE14=Rionegro and Solimões - Esperando Na Janela
TTITLE15=Rick and Renner - Prá Ficar Dez
EXTD=
EXTT0=
EXTT1=
EXTT2=
EXTT3=
EXTT4=
EXTT5=
EXTT6=
EXTT7=
EXTT8=
EXTT9=
EXTT10=
EXTT11=
EXTT12=
EXTT13=
EXTT14=
EXTT15=
PLAYORDER=
